<svg  className = 'cancelIcon' width="35px" height="35px" viewBox="0 0 300 300" version="1.1">
    <g fill="#D6D6D6"  id="Logo" stroke="none" stroke-width="1" fill-rule="evenodd">
        <path d="M231.885822,72.3223305 C241.64893,82.0854378 241.64893,97.9145622 231.885822,107.67767 L184.959,154.604 L222.885822,192.530483 C232.64893,202.293591 232.64893,218.122715 222.885822,227.885822 C213.122715,237.64893 197.293591,237.64893 187.530483,227.885822 L149.604,189.959 L111.67767,227.885822 C101.914562,237.64893 86.0854378,237.64893 76.3223305,227.885822 C66.5592232,218.122715 66.5592232,202.293591 76.3223305,192.530483 L114.249,154.604 L67.3223305,107.67767 C57.5592232,97.9145622 57.5592232,82.0854378 67.3223305,72.3223305 C77.0854378,62.5592232 92.9145622,62.5592232 102.67767,72.3223305 L149.604,119.249 L196.530483,72.3223305 C206.293591,62.5592232 222.122715,62.5592232 231.885822,72.3223305 Z" id="Combined-Shape"></path>
    </g>
</svg>