<svg width="675px" height="340px" viewBox="0 0 675 340" version="1.1">
    <defs>
        <path d="M111,71 C124.807119,71 136,82.1928813 136,96 L136.000134,113.24436 C150.708772,104.820988 167.785698,100 186,100 C240.637233,100 285.040208,143.379882 285.984649,197.247611 L286,197.283296 L286,296 C286,309.807119 274.807119,321 261,321 C247.192881,321 236,309.807119 236,296 L236,198.999 L235.990199,198.99997 C235.457521,171.847326 213.280119,150 186,150 C158.719881,150 136.542479,171.847326 136.009801,198.99997 L136,198.999 L136,296 C136,309.807119 124.807119,321 111,321 C97.1928813,321 86,309.807119 86,296 L86,96 C86,82.1928813 97.1928813,71 111,71 Z M331,10.7816875 C344.807119,10.7816875 356,21.9745687 356,35.7816875 L356,75.4996875 L386,75.5 C399.807119,75.5 411,86.6928813 411,100.5 C411,114.169048 400.029857,125.275881 386.413421,125.496651 L386,125.5 L386,125.5 L356,125.499687 L356,221.001 L356.135107,221.000167 C358.030459,248.955574 379.631548,271 406,271 C432.368452,271 453.969541,248.955574 455.864893,221.000167 L456,221 L456,101 C456,87.1928813 467.192881,76 481,76 C494.807119,76 506,87.1928813 506,101 L506.000134,118.378142 C520.708772,109.869685 537.785698,105 556,105 C610.67619,105 655.103524,148.880572 655.986603,203.346317 L656,205 C656,218.807119 644.807119,230 631,230 C617.192881,230 606,218.807119 606,205 L606,204.999 L605.990199,204.99997 C605.457521,177.847326 583.280119,156 556,156 C528.719881,156 506.542479,177.847326 506.009801,204.99997 L506,204.999 L506,221.000687 L505.999099,221.214435 C505.9985,221.285843 505.9976,221.357179 505.996403,221.428442 L506,221 C506,276.228475 461.228475,321 406,321 C351.362361,321 306.959132,277.181286 306.01533,222.768877 L306,222.706746 L306.000098,124.999929 C294.588848,122.683615 286,112.594824 286,100.5 C286,88.4051759 294.588848,78.3163845 306.000098,76.0000707 L306,35.7816875 C306,21.9745687 317.192881,10.7816875 331,10.7816875 Z M36,71 C49.8071187,71 61,82.1928813 61,96 L61,296 C61,309.669048 50.0298571,320.775881 36.4134207,320.996651 L36,321 L36,321 C22.1928813,321 11,309.807119 11,296 L11,96 C11,82.1928813 22.1928813,71 36,71 Z M556,180 C569.807119,180 581,191.192881 581,205 C581,218.807119 569.807119,230 556,230 C542.192881,230 531,218.807119 531,205 C531,191.192881 542.192881,180 556,180 Z M76.5,16 C91.6878306,16 104,28.3121694 104,43.5 C104,58.6878306 91.6878306,71 76.5,71 C61.3121694,71 49,58.6878306 49,43.5 C49,28.3121694 61.3121694,16 76.5,16 Z" id="path-1"></path>
        <filter x="-3.2%" y="-6.6%" width="107.6%" height="115.8%" filterUnits="objectBoundingBox" id="filter-2">
            <feMorphology radius="2.5" operator="dilate" in="SourceAlpha" result="shadowSpreadOuter1"></feMorphology>
            <feOffset dx="4" dy="4" in="shadowSpreadOuter1" result="shadowOffsetOuter1"></feOffset>
            <feGaussianBlur stdDeviation="5" in="shadowOffsetOuter1" result="shadowBlurOuter1"></feGaussianBlur>
            <feColorMatrix values="0 0 0 0 0.648692255   0 0 0 0 0.648692255   0 0 0 0 0.648692255  0 0 0 0.5 0" type="matrix" in="shadowBlurOuter1"></feColorMatrix>
        </filter>
        <filter x="-2.8%" y="-5.8%" width="106.8%" height="114.2%" filterUnits="objectBoundingBox" id="filter-3">
            <feGaussianBlur stdDeviation="5" in="SourceAlpha" result="shadowBlurInner1"></feGaussianBlur>
            <feOffset dx="-4" dy="4" in="shadowBlurInner1" result="shadowOffsetInner1"></feOffset>
            <feComposite in="shadowOffsetInner1" in2="SourceAlpha" operator="arithmetic" k2="-1" k3="1" result="shadowInnerInner1"></feComposite>
            <feColorMatrix values="0 0 0 0 0.681187726   0 0 0 0 0.681187726   0 0 0 0 0.681187726  0 0 0 0.5 0" type="matrix" in="shadowInnerInner1" result="shadowMatrixInner1"></feColorMatrix>
            <feGaussianBlur stdDeviation="1.5" in="SourceAlpha" result="shadowBlurInner2"></feGaussianBlur>
            <feOffset dx="4" dy="-4" in="shadowBlurInner2" result="shadowOffsetInner2"></feOffset>
            <feComposite in="shadowOffsetInner2" in2="SourceAlpha" operator="arithmetic" k2="-1" k3="1" result="shadowInnerInner2"></feComposite>
            <feColorMatrix values="0 0 0 0 1   0 0 0 0 1   0 0 0 0 1  0 0 0 1 0" type="matrix" in="shadowInnerInner2" result="shadowMatrixInner2"></feColorMatrix>
            <feMerge>
                <feMergeNode in="shadowMatrixInner1"></feMergeNode>
                <feMergeNode in="shadowMatrixInner2"></feMergeNode>
            </feMerge>
        </filter>
    </defs>
    <g id="Logo" stroke="none" stroke-width="1" fill="none" fill-rule="evenodd">
        <g id="Combined-Shape">
            <use fill="black" fill-opacity="1" filter="url(#filter-2)" href="#path-1"></use>
            <use fill="#FFFFFF" fill-rule="evenodd" href="#path-1"></use>
            <use fill="black" fill-opacity="1" filter="url(#filter-3)" href="#path-1"></use>
        </g>
    </g>
</svg>